<?xml version="1.0" encoding="UTF-8" standalone="no"?>
<!DOCTYPE svg PUBLIC "-//W3C//DTD SVG 20010904//EN"
              "http://www.w3.org/TR/2001/REC-SVG-20010904/DTD/svg10.dtd">

<svg xmlns="http://www.w3.org/2000/svg"
     width="94.3in" height="94.3in"
     viewBox="0 0 8487 8487">
  <path id="Selection"
        fill="white" stroke="white" stroke-width="1"
        d="M 3956.00,1608.00
           C 3956.00,1608.00 3920.00,1611.72 3920.00,1611.72
             3920.00,1611.72 3860.00,1619.73 3860.00,1619.73
             3790.48,1629.75 3721.45,1642.64 3653.00,1658.35
             3473.57,1699.53 3303.33,1757.47 3136.00,1834.31
             3136.00,1834.31 3079.00,1861.74 3079.00,1861.74
             3037.08,1882.03 2995.54,1903.46 2955.00,1926.42
             2848.87,1986.53 2773.90,2035.02 2675.00,2106.42
             2675.00,2106.42 2608.00,2157.35 2608.00,2157.35
             2608.00,2157.35 2592.00,2169.99 2592.00,2169.99
             2590.03,2171.51 2587.69,2173.67 2585.00,2172.84
             2582.81,2172.17 2578.75,2167.74 2577.00,2166.00
             2577.00,2166.00 2562.00,2151.00 2562.00,2151.00
             2562.00,2151.00 2505.00,2094.00 2505.00,2094.00
             2505.00,2094.00 2452.00,2041.00 2452.00,2041.00
             2452.00,2041.00 2425.49,2014.00 2425.49,2014.00
             2425.49,2014.00 2410.75,1985.00 2410.75,1985.00
             2410.75,1985.00 2383.14,1933.00 2383.14,1933.00
             2355.94,1884.28 2323.73,1835.07 2290.85,1790.00
             2245.61,1727.99 2196.01,1668.46 2142.96,1613.00
             2142.96,1613.00 2106.00,1576.00 2106.00,1576.00
             1993.95,1463.95 1867.58,1364.35 1728.00,1288.69
             1665.02,1254.55 1598.23,1225.60 1529.00,1206.85
             1494.39,1197.48 1458.85,1190.52 1423.00,1188.96
             1423.00,1188.96 1412.00,1188.00 1412.00,1188.00
             1380.97,1187.64 1349.92,1189.80 1320.00,1198.72
             1301.65,1204.19 1283.96,1212.07 1268.00,1222.67
             1254.96,1231.33 1249.98,1235.97 1239.00,1247.00
             1210.84,1275.30 1195.35,1316.06 1189.58,1355.00
             1188.41,1362.92 1187.01,1373.09 1187.00,1381.00
             1187.00,1381.00 1186.00,1398.00 1186.00,1398.00
             1186.00,1398.00 1187.00,1416.00 1187.00,1416.00
             1187.44,1454.20 1196.44,1497.23 1206.86,1534.00
             1206.86,1534.00 1225.42,1591.00 1225.42,1591.00
             1291.13,1765.17 1412.09,1931.23 1540.04,2065.00
             1540.04,2065.00 1569.00,2094.00 1569.00,2094.00
             1569.00,2094.00 1600.00,2124.96 1600.00,2124.96
             1683.37,2204.70 1788.98,2289.38 1888.00,2348.80
             1888.00,2348.80 1967.00,2393.69 1967.00,2393.69
             1967.00,2393.69 1995.00,2407.75 1995.00,2407.75
             1998.40,2409.45 2005.40,2412.45 2008.00,2414.41
             2008.00,2414.41 2043.00,2449.00 2043.00,2449.00
             2043.00,2449.00 2111.00,2517.00 2111.00,2517.00
             2111.00,2517.00 2160.00,2566.00 2160.00,2566.00
             2160.00,2566.00 2171.99,2578.00 2171.99,2578.00
             2173.47,2579.53 2175.89,2581.75 2176.04,2584.00
             2176.22,2586.53 2172.92,2590.10 2171.40,2592.00
             2171.40,2592.00 2157.20,2610.00 2157.20,2610.00
             2157.20,2610.00 2102.71,2682.00 2102.71,2682.00
             2037.10,2773.62 1975.06,2867.84 1921.31,2967.00
             1898.79,3008.55 1876.86,3050.44 1856.26,3093.00
             1768.25,3274.84 1701.14,3469.75 1657.58,3667.00
             1643.26,3731.81 1631.02,3797.26 1621.87,3863.00
             1621.87,3863.00 1614.72,3917.00 1614.72,3917.00
             1614.72,3917.00 1611.00,3954.00 1611.00,3954.00
             1611.00,3954.00 1391.00,3954.00 1391.00,3954.00
             1381.76,3953.99 1377.60,3951.54 1369.00,3948.67
             1369.00,3948.67 1339.00,3938.67 1339.00,3938.67
             1309.92,3928.98 1279.82,3920.96 1250.00,3913.88
             1180.56,3897.42 1109.97,3885.93 1039.00,3878.83
             1039.00,3878.83 979.00,3873.91 979.00,3873.91
             979.00,3873.91 947.00,3872.00 947.00,3872.00
             947.00,3872.00 937.00,3871.04 937.00,3871.04
             937.00,3871.04 923.00,3871.04 923.00,3871.04
             923.00,3871.04 908.00,3870.00 908.00,3870.00
             908.00,3870.00 798.00,3870.00 798.00,3870.00
             798.00,3870.00 783.00,3871.00 783.00,3871.00
             783.00,3871.00 770.00,3871.00 770.00,3871.00
             770.00,3871.00 757.00,3872.00 757.00,3872.00
             757.00,3872.00 733.00,3873.00 733.00,3873.00
             733.00,3873.00 723.00,3873.91 723.00,3873.91
             723.00,3873.91 685.00,3876.83 685.00,3876.83
             685.00,3876.83 631.00,3882.16 631.00,3882.16
             631.00,3882.16 558.00,3892.58 558.00,3892.58
             493.65,3902.57 430.35,3917.57 368.00,3936.28
             304.99,3955.19 243.68,3980.03 186.00,4011.70
             145.90,4033.71 102.29,4063.72 70.91,4097.00
             70.91,4097.00 61.17,4107.00 61.17,4107.00
             37.72,4132.96 18.68,4164.29 9.00,4198.00
             6.24,4207.62 3.12,4223.10 3.00,4233.00
             2.79,4251.10 2.46,4264.04 6.42,4282.00
             18.77,4337.99 56.89,4383.55 100.00,4419.41
             175.69,4482.38 274.67,4522.32 368.00,4551.02
             442.71,4574.01 521.56,4589.09 599.00,4599.28
             631.28,4603.53 663.56,4606.86 696.00,4609.09
             696.00,4609.09 724.00,4611.00 724.00,4611.00
             724.00,4611.00 737.00,4612.04 737.00,4612.04
             737.00,4612.04 747.00,4612.04 747.00,4612.04
             747.00,4612.04 757.00,4613.00 757.00,4613.00
             757.00,4613.00 769.00,4613.00 769.00,4613.00
             769.00,4613.00 784.00,4614.00 784.00,4614.00
             784.00,4614.00 890.00,4614.00 890.00,4614.00
             890.00,4614.00 902.00,4613.04 902.00,4613.04
             902.00,4613.04 916.00,4613.04 916.00,4613.04
             916.00,4613.04 933.00,4612.00 933.00,4612.00
             933.00,4612.00 964.00,4610.09 964.00,4610.09
             964.00,4610.09 1066.00,4600.72 1066.00,4600.72
             1129.29,4592.90 1209.80,4578.59 1271.00,4561.58
             1271.00,4561.58 1339.00,4541.33 1339.00,4541.33
             1350.20,4537.60 1367.79,4530.02 1379.00,4530.00
             1379.00,4530.00 1611.00,4530.00 1611.00,4530.00
             1611.00,4530.00 1614.72,4567.00 1614.72,4567.00
             1614.72,4567.00 1621.87,4621.00 1621.87,4621.00
             1631.22,4688.15 1643.96,4754.82 1658.58,4821.00
             1695.03,4986.06 1750.56,5154.40 1818.86,5309.00
             1818.86,5309.00 1864.74,5407.00 1864.74,5407.00
             1885.03,5448.92 1906.46,5490.45 1929.42,5531.00
             1988.44,5635.19 2039.32,5713.91 2109.42,5811.00
             2109.42,5811.00 2160.35,5878.00 2160.35,5878.00
             2160.35,5878.00 2172.99,5894.00 2172.99,5894.00
             2174.51,5895.97 2176.67,5898.31 2175.84,5901.00
             2175.17,5903.19 2170.74,5907.25 2169.00,5909.00
             2169.00,5909.00 2154.00,5924.00 2154.00,5924.00
             2154.00,5924.00 2097.00,5981.00 2097.00,5981.00
             2097.00,5981.00 2043.00,6035.00 2043.00,6035.00
             2043.00,6035.00 2016.00,6061.30 2016.00,6061.30
             2016.00,6061.30 1988.00,6075.25 1988.00,6075.25
             1988.00,6075.25 1936.00,6102.86 1936.00,6102.86
             1887.03,6130.20 1838.30,6162.11 1793.00,6195.15
             1730.99,6240.39 1671.45,6290.00 1616.00,6343.04
             1616.00,6343.04 1579.00,6380.00 1579.00,6380.00
             1579.00,6380.00 1550.04,6409.00 1550.04,6409.00
             1449.47,6514.15 1359.99,6631.88 1290.69,6760.00
             1256.92,6822.44 1228.43,6888.40 1209.85,6957.00
             1200.48,6991.61 1193.52,7027.14 1191.96,7063.00
             1191.96,7063.00 1191.00,7074.00 1191.00,7074.00
             1190.64,7105.00 1192.73,7136.13 1201.72,7166.00
             1207.48,7185.13 1215.24,7202.36 1226.33,7219.00
             1234.17,7230.75 1239.06,7236.08 1249.00,7246.00
             1279.32,7276.28 1322.06,7292.14 1364.00,7297.15
             1364.00,7297.15 1382.00,7299.04 1382.00,7299.04
             1382.00,7299.04 1392.00,7299.04 1392.00,7299.04
             1392.00,7299.04 1402.00,7300.00 1402.00,7300.00
             1402.00,7300.00 1425.00,7299.00 1425.00,7299.00
             1440.54,7298.93 1475.10,7293.60 1491.00,7290.40
             1491.00,7290.40 1537.00,7279.14 1537.00,7279.14
             1537.00,7279.14 1594.00,7260.58 1594.00,7260.58
             1720.20,7213.36 1841.11,7136.31 1946.00,7052.40
             2101.83,6927.74 2247.38,6768.48 2351.81,6598.00
             2351.81,6598.00 2396.22,6520.00 2396.22,6520.00
             2396.22,6520.00 2417.49,6478.00 2417.49,6478.00
             2417.49,6478.00 2452.00,6443.00 2452.00,6443.00
             2452.00,6443.00 2520.00,6375.00 2520.00,6375.00
             2520.00,6375.00 2569.00,6326.00 2569.00,6326.00
             2569.00,6326.00 2581.00,6314.01 2581.00,6314.01
             2582.53,6312.53 2584.75,6310.11 2587.00,6309.96
             2589.53,6309.78 2593.10,6313.08 2595.00,6314.60
             2595.00,6314.60 2613.00,6328.80 2613.00,6328.80
             2613.00,6328.80 2685.00,6383.29 2685.00,6383.29
             2776.62,6448.89 2870.85,6510.95 2970.00,6564.69
             3202.77,6690.86 3425.44,6774.63 3684.00,6831.42
             3747.08,6845.28 3810.99,6856.66 3875.00,6865.28
             3891.79,6867.54 3943.12,6874.99 3957.00,6875.00
             3957.00,6875.00 3957.00,7095.00 3957.00,7095.00
             3956.98,7104.29 3954.55,7108.35 3951.67,7117.00
             3951.67,7117.00 3941.67,7147.00 3941.67,7147.00
             3931.98,7176.07 3923.96,7206.18 3916.88,7236.00
             3900.41,7305.45 3888.93,7376.02 3881.83,7447.00
             3881.83,7447.00 3876.91,7506.00 3876.91,7506.00
             3876.91,7506.00 3875.00,7539.00 3875.00,7539.00
             3875.00,7539.00 3874.04,7549.00 3874.04,7549.00
             3874.04,7549.00 3874.04,7563.00 3874.04,7563.00
             3874.04,7563.00 3873.00,7578.00 3873.00,7578.00
             3873.00,7578.00 3873.00,7689.00 3873.00,7689.00
             3873.00,7689.00 3873.96,7701.00 3873.96,7701.00
             3873.96,7701.00 3873.96,7716.00 3873.96,7716.00
             3873.96,7716.00 3875.00,7730.00 3875.00,7730.00
             3875.00,7730.00 3876.00,7753.00 3876.00,7753.00
             3876.00,7753.00 3876.91,7763.00 3876.91,7763.00
             3876.91,7763.00 3877.83,7777.00 3877.83,7777.00
             3877.83,7777.00 3881.83,7823.00 3881.83,7823.00
             3892.05,7925.20 3909.62,8019.54 3939.28,8118.00
             3958.27,8181.03 3983.00,8242.28 4014.70,8300.00
             4036.71,8340.10 4066.72,8383.71 4100.00,8415.09
             4100.00,8415.09 4111.00,8425.71 4111.00,8425.71
             4139.87,8451.03 4173.23,8471.10 4211.00,8479.42
             4218.28,8481.03 4228.63,8482.91 4236.00,8483.00
             4254.10,8483.21 4267.04,8483.54 4285.00,8479.58
             4340.99,8467.23 4386.55,8429.11 4422.41,8386.00
             4485.54,8310.11 4525.25,8211.55 4554.02,8118.00
             4578.98,8036.87 4597.13,7939.47 4606.16,7855.00
             4606.16,7855.00 4613.09,7776.00 4613.09,7776.00
             4613.09,7776.00 4615.00,7750.00 4615.00,7750.00
             4615.00,7750.00 4616.00,7719.00 4616.00,7719.00
             4616.00,7719.00 4617.00,7704.00 4617.00,7704.00
             4617.00,7704.00 4617.00,7595.00 4617.00,7595.00
             4617.00,7595.00 4616.00,7579.00 4616.00,7579.00
             4616.00,7579.00 4615.00,7550.00 4615.00,7550.00
             4615.00,7550.00 4613.09,7521.00 4613.09,7521.00
             4613.09,7521.00 4606.16,7442.00 4606.16,7442.00
             4599.78,7382.35 4587.97,7309.12 4573.63,7251.00
             4566.09,7220.47 4558.23,7189.96 4548.66,7160.00
             4548.66,7160.00 4538.33,7129.00 4538.33,7129.00
             4535.45,7120.35 4533.02,7116.29 4533.00,7107.00
             4533.00,7107.00 4533.00,6875.00 4533.00,6875.00
             4533.00,6875.00 4562.00,6872.16 4562.00,6872.16
             4562.00,6872.16 4635.00,6862.42 4635.00,6862.42
             4698.47,6852.57 4761.26,6841.28 4824.00,6827.42
             5036.94,6780.40 5252.25,6703.23 5446.00,6603.26
             5446.00,6603.26 5534.00,6556.58 5534.00,6556.58
             5638.19,6497.56 5716.91,6446.68 5814.00,6376.58
             5814.00,6376.58 5881.00,6325.65 5881.00,6325.65
             5881.00,6325.65 5897.00,6313.01 5897.00,6313.01
             5898.97,6311.49 5901.31,6309.33 5904.00,6310.16
             5906.19,6310.83 5910.25,6315.26 5912.00,6317.00
             5912.00,6317.00 5927.00,6332.00 5927.00,6332.00
             5927.00,6332.00 5984.00,6389.00 5984.00,6389.00
             5984.00,6389.00 6038.00,6443.00 6038.00,6443.00
             6038.00,6443.00 6064.30,6470.00 6064.30,6470.00
             6064.30,6470.00 6078.25,6498.00 6078.25,6498.00
             6078.25,6498.00 6105.86,6550.00 6105.86,6550.00
             6133.25,6599.07 6165.04,6647.61 6198.15,6693.00
             6243.39,6755.01 6293.00,6814.55 6346.04,6870.00
             6346.04,6870.00 6383.00,6907.00 6383.00,6907.00
             6383.00,6907.00 6412.00,6935.96 6412.00,6935.96
             6517.14,7036.52 6634.89,7126.02 6763.00,7195.31
             6825.37,7229.04 6891.48,7257.59 6960.00,7276.15
             6994.60,7285.52 7030.16,7292.48 7066.00,7294.04
             7066.00,7294.04 7077.00,7295.00 7077.00,7295.00
             7107.97,7295.36 7139.17,7293.27 7169.00,7284.28
             7188.13,7278.52 7205.36,7270.76 7222.00,7259.67
             7233.75,7251.83 7239.08,7246.94 7249.00,7237.00
             7310.35,7175.55 7309.35,7074.30 7293.40,6995.00
             7293.40,6995.00 7282.14,6949.00 7282.14,6949.00
             7282.14,6949.00 7263.58,6892.00 7263.58,6892.00
             7216.29,6765.61 7139.43,6645.04 7055.40,6540.00
             6930.72,6384.15 6771.50,6238.63 6601.00,6134.19
             6601.00,6134.19 6523.00,6089.78 6523.00,6089.78
             6523.00,6089.78 6481.00,6068.51 6481.00,6068.51
             6481.00,6068.51 6446.00,6034.00 6446.00,6034.00
             6446.00,6034.00 6378.00,5966.00 6378.00,5966.00
             6378.00,5966.00 6329.00,5917.00 6329.00,5917.00
             6329.00,5917.00 6317.01,5905.00 6317.01,5905.00
             6315.53,5903.47 6313.11,5901.25 6312.96,5899.00
             6312.78,5896.47 6316.08,5892.90 6317.60,5891.00
             6317.60,5891.00 6331.80,5873.00 6331.80,5873.00
             6331.80,5873.00 6386.29,5801.00 6386.29,5801.00
             6451.89,5709.38 6513.94,5615.16 6567.69,5516.00
             6590.21,5474.45 6612.14,5432.56 6632.74,5390.00
             6720.76,5208.15 6787.86,5013.26 6831.42,4816.00
             6845.74,4751.19 6857.98,4685.74 6867.13,4620.00
             6867.13,4620.00 6874.28,4566.00 6874.28,4566.00
             6874.28,4566.00 6878.00,4529.00 6878.00,4529.00
             6878.00,4529.00 7098.00,4529.00 7098.00,4529.00
             7108.19,4529.02 7109.62,4530.87 7119.00,4534.00
             7119.00,4534.00 7148.00,4543.67 7148.00,4543.67
             7176.41,4553.14 7205.86,4561.20 7235.00,4568.12
             7305.85,4584.92 7377.57,4596.93 7450.00,4604.17
             7450.00,4604.17 7510.00,4609.09 7510.00,4609.09
             7510.00,4609.09 7543.00,4611.00 7543.00,4611.00
             7543.00,4611.00 7553.00,4611.96 7553.00,4611.96
             7553.00,4611.96 7568.00,4611.96 7568.00,4611.96
             7568.00,4611.96 7582.00,4613.00 7582.00,4613.00
             7582.00,4613.00 7691.00,4613.00 7691.00,4613.00
             7691.00,4613.00 7706.00,4612.00 7706.00,4612.00
             7706.00,4612.00 7719.00,4612.00 7719.00,4612.00
             7719.00,4612.00 7732.00,4611.00 7732.00,4611.00
             7732.00,4611.00 7756.00,4610.00 7756.00,4610.00
             7756.00,4610.00 7766.00,4609.09 7766.00,4609.09
             7766.00,4609.09 7804.00,4606.17 7804.00,4606.17
             7804.00,4606.17 7859.00,4600.72 7859.00,4600.72
             7949.36,4589.56 8030.65,4573.93 8118.00,4547.72
             8182.05,4528.50 8244.36,4503.50 8303.00,4471.30
             8343.31,4449.17 8386.53,4419.47 8418.09,4386.00
             8418.09,4386.00 8427.83,4376.00 8427.83,4376.00
             8451.27,4350.04 8470.32,4318.71 8480.00,4285.00
             8482.76,4275.38 8485.88,4259.90 8486.00,4250.00
             8486.21,4231.90 8486.54,4218.96 8482.58,4201.00
             8470.22,4144.99 8432.11,4099.46 8389.00,4063.59
             8314.29,4001.42 8206.18,3956.14 8113.00,3929.58
             8029.49,3905.77 7944.35,3889.07 7858.00,3879.84
             7858.00,3879.84 7794.00,3873.91 7794.00,3873.91
             7794.00,3873.91 7769.00,3872.00 7769.00,3872.00
             7769.00,3872.00 7752.00,3871.00 7752.00,3871.00
             7752.00,3871.00 7722.00,3870.00 7722.00,3870.00
             7722.00,3870.00 7707.00,3869.00 7707.00,3869.00
             7707.00,3869.00 7598.00,3869.00 7598.00,3869.00
             7598.00,3869.00 7586.00,3869.96 7586.00,3869.96
             7586.00,3869.96 7571.00,3869.96 7571.00,3869.96
             7571.00,3869.96 7558.00,3871.00 7558.00,3871.00
             7558.00,3871.00 7524.00,3872.91 7524.00,3872.91
             7524.00,3872.91 7475.00,3876.83 7475.00,3876.83
             7399.92,3884.10 7325.48,3895.46 7252.00,3912.88
             7221.83,3920.04 7191.48,3928.06 7162.00,3937.67
             7162.00,3937.67 7131.00,3948.00 7131.00,3948.00
             7122.42,3950.86 7119.24,3952.99 7110.00,3953.00
             7110.00,3953.00 6878.00,3953.00 6878.00,3953.00
             6878.00,3953.00 6874.28,3916.00 6874.28,3916.00
             6874.28,3916.00 6867.13,3862.00 6867.13,3862.00
             6857.79,3794.86 6845.04,3728.17 6830.42,3662.00
             6795.28,3502.89 6742.39,3340.48 6677.58,3191.00
             6677.58,3191.00 6625.26,3078.00 6625.26,3078.00
             6604.64,3035.40 6582.91,2993.20 6559.58,2952.00
             6500.46,2847.63 6449.80,2769.25 6379.58,2672.00
             6379.58,2672.00 6328.65,2605.00 6328.65,2605.00
             6328.65,2605.00 6316.01,2589.00 6316.01,2589.00
             6314.49,2587.03 6312.33,2584.69 6313.16,2582.00
             6313.83,2579.81 6318.26,2575.75 6320.00,2574.00
             6320.00,2574.00 6335.00,2559.00 6335.00,2559.00
             6335.00,2559.00 6392.00,2502.00 6392.00,2502.00
             6392.00,2502.00 6446.00,2448.00 6446.00,2448.00
             6446.00,2448.00 6473.00,2421.70 6473.00,2421.70
             6473.00,2421.70 6501.00,2407.75 6501.00,2407.75
             6501.00,2407.75 6553.00,2380.14 6553.00,2380.14
             6601.69,2352.96 6650.95,2320.71 6696.00,2287.85
             6758.01,2242.61 6817.55,2193.00 6873.00,2139.96
             6873.00,2139.96 6910.00,2103.00 6910.00,2103.00
             6910.00,2103.00 6938.96,2074.00 6938.96,2074.00
             7039.53,1968.85 7129.01,1851.12 7198.31,1723.00
             7232.05,1660.62 7260.59,1594.53 7279.15,1526.00
             7288.52,1491.39 7295.48,1455.85 7297.04,1420.00
             7297.04,1420.00 7298.00,1409.00 7298.00,1409.00
             7298.36,1378.03 7296.27,1346.83 7287.28,1317.00
             7281.74,1298.59 7273.98,1281.04 7263.33,1265.00
             7254.67,1251.96 7250.03,1246.98 7239.00,1236.00
             7210.63,1207.77 7170.04,1192.37 7131.00,1186.58
             7131.00,1186.58 7107.00,1183.96 7107.00,1183.96
             7107.00,1183.96 7097.00,1183.96 7097.00,1183.96
             7097.00,1183.96 7087.00,1183.00 7087.00,1183.00
             7087.00,1183.00 7065.00,1184.00 7065.00,1184.00
             7049.37,1184.02 7014.96,1189.21 6999.00,1192.40
             6999.00,1192.40 6952.00,1203.86 6952.00,1203.86
             6952.00,1203.86 6895.00,1222.42 6895.00,1222.42
             6720.82,1288.14 6554.78,1409.08 6421.00,1537.04
             6421.00,1537.04 6392.00,1566.00 6392.00,1566.00
             6392.00,1566.00 6361.04,1597.00 6361.04,1597.00
             6281.36,1680.31 6196.57,1786.05 6137.20,1885.00
             6137.20,1885.00 6092.78,1963.00 6092.78,1963.00
             6092.78,1963.00 6078.25,1992.00 6078.25,1992.00
             6076.55,1995.40 6073.55,2002.40 6071.59,2005.00
             6071.59,2005.00 6037.00,2040.00 6037.00,2040.00
             6037.00,2040.00 5969.00,2108.00 5969.00,2108.00
             5969.00,2108.00 5920.00,2157.00 5920.00,2157.00
             5920.00,2157.00 5908.00,2168.99 5908.00,2168.99
             5906.47,2170.47 5904.25,2172.89 5902.00,2173.04
             5899.47,2173.22 5895.90,2169.92 5894.00,2168.40
             5894.00,2168.40 5876.00,2154.20 5876.00,2154.20
             5876.00,2154.20 5804.00,2099.71 5804.00,2099.71
             5712.37,2034.10 5618.17,1972.06 5519.00,1918.31
             5477.45,1895.79 5435.56,1873.86 5393.00,1853.26
             5210.64,1764.99 5016.80,1698.26 4819.00,1654.58
             4754.19,1640.26 4688.75,1628.02 4623.00,1618.87
             4623.00,1618.87 4569.00,1611.72 4569.00,1611.72
             4569.00,1611.72 4532.00,1608.00 4532.00,1608.00
             4532.00,1608.00 4532.00,1388.00 4532.00,1388.00
             4532.02,1375.16 4539.91,1360.48 4543.58,1348.00
             4543.58,1348.00 4553.28,1317.00 4553.28,1317.00
             4553.28,1317.00 4571.12,1251.00 4571.12,1251.00
             4587.95,1180.04 4599.91,1108.54 4607.17,1036.00
             4607.17,1036.00 4612.09,977.00 4612.09,977.00
             4612.09,977.00 4614.00,944.00 4614.00,944.00
             4614.00,944.00 4614.96,934.00 4614.96,934.00
             4614.96,934.00 4614.96,920.00 4614.96,920.00
             4614.96,920.00 4616.00,905.00 4616.00,905.00
             4616.00,905.00 4616.00,794.00 4616.00,794.00
             4616.00,794.00 4615.04,782.00 4615.04,782.00
             4615.04,782.00 4615.04,767.00 4615.04,767.00
             4615.04,767.00 4614.00,753.00 4614.00,753.00
             4614.00,753.00 4613.00,730.00 4613.00,730.00
             4613.00,730.00 4612.09,720.00 4612.09,720.00
             4612.09,720.00 4611.17,706.00 4611.17,706.00
             4611.17,706.00 4607.17,660.00 4607.17,660.00
             4597.26,560.90 4579.37,463.48 4550.72,368.00
             4531.50,303.94 4506.50,241.65 4474.30,183.00
             4452.17,142.69 4422.47,99.47 4389.00,67.91
             4389.00,67.91 4379.00,58.17 4379.00,58.17
             4352.90,34.60 4321.89,15.73 4288.00,6.00
             4278.38,3.24 4262.90,0.12 4253.00,0.00
             4234.90,-0.21 4221.96,-0.54 4204.00,3.42
             4147.99,15.78 4102.46,53.89 4066.59,97.00
             4003.49,172.82 3963.73,271.51 3934.98,365.00
             3909.93,446.42 3891.90,543.23 3882.84,628.00
             3882.84,628.00 3875.91,707.00 3875.91,707.00
             3875.91,707.00 3874.00,733.00 3874.00,733.00
             3874.00,733.00 3873.00,763.00 3873.00,763.00
             3873.00,763.00 3872.00,778.00 3872.00,778.00
             3872.00,778.00 3872.00,888.00 3872.00,888.00
             3872.00,888.00 3873.04,904.00 3873.04,904.00
             3873.04,904.00 3873.04,919.00 3873.04,919.00
             3873.04,919.00 3874.00,933.00 3874.00,933.00
             3874.00,933.00 3875.91,962.00 3875.91,962.00
             3875.91,962.00 3882.84,1041.00 3882.84,1041.00
             3889.22,1100.65 3901.03,1173.88 3915.37,1232.00
             3922.91,1262.54 3930.77,1293.03 3940.34,1323.00
             3940.34,1323.00 3950.67,1354.00 3950.67,1354.00
             3953.55,1362.65 3955.98,1366.71 3956.00,1376.00
             3956.00,1376.00 3956.00,1608.00 3956.00,1608.00 Z
           M 4239.00,1738.28
           C 4239.00,1738.28 4257.00,1739.00 4257.00,1739.00
             4257.00,1739.00 4306.00,1739.00 4306.00,1739.00
             4306.00,1739.00 4322.00,1740.00 4322.00,1740.00
             4322.00,1740.00 4337.00,1740.00 4337.00,1740.00
             4337.00,1740.00 4353.00,1741.00 4353.00,1741.00
             4353.00,1741.00 4379.00,1742.00 4379.00,1742.00
             4379.00,1742.00 4393.00,1743.00 4393.00,1743.00
             4393.00,1743.00 4422.00,1744.91 4422.00,1744.91
             4422.00,1744.91 4459.00,1747.83 4459.00,1747.83
             4459.00,1747.83 4498.00,1751.17 4498.00,1751.17
             4498.00,1751.17 4578.00,1760.72 4578.00,1760.72
             4690.19,1775.49 4801.98,1798.11 4911.00,1828.42
             4911.00,1828.42 5000.00,1854.98 5000.00,1854.98
             5283.24,1943.01 5553.41,2088.15 5787.00,2270.42
             5852.60,2321.61 5915.90,2376.56 5976.00,2434.04
             5976.00,2434.04 6004.00,2461.99 6004.00,2461.99
             6004.00,2461.99 6014.99,2472.01 6014.99,2472.01
             6014.99,2472.01 6025.01,2483.00 6025.01,2483.00
             6025.01,2483.00 6052.96,2511.00 6052.96,2511.00
             6110.43,2571.08 6165.45,2634.38 6216.58,2700.00
             6399.08,2934.24 6543.79,3203.11 6632.02,3487.00
             6677.09,3631.99 6707.46,3766.40 6727.28,3917.00
             6732.61,3957.52 6737.24,3998.27 6740.09,4039.00
             6740.09,4039.00 6743.09,4081.00 6743.09,4081.00
             6743.09,4081.00 6744.00,4091.00 6744.00,4091.00
             6744.00,4091.00 6745.04,4108.00 6745.04,4108.00
             6745.04,4108.00 6745.04,4117.00 6745.04,4117.00
             6745.04,4117.00 6746.04,4129.00 6746.04,4129.00
             6746.04,4129.00 6746.04,4140.00 6746.04,4140.00
             6746.04,4140.00 6747.00,4151.00 6747.00,4151.00
             6747.00,4151.00 6747.00,4165.00 6747.00,4165.00
             6747.00,4165.00 6748.00,4180.00 6748.00,4180.00
             6748.00,4180.00 6748.00,4306.00 6748.00,4306.00
             6748.00,4306.00 6747.00,4322.00 6747.00,4322.00
             6747.00,4322.00 6747.00,4336.00 6747.00,4336.00
             6747.00,4336.00 6746.00,4359.00 6746.00,4359.00
             6746.00,4359.00 6745.00,4379.00 6745.00,4379.00
             6745.00,4379.00 6744.00,4390.00 6744.00,4390.00
             6744.00,4390.00 6744.00,4400.00 6744.00,4400.00
             6744.00,4400.00 6743.09,4407.00 6743.09,4407.00
             6743.09,4407.00 6737.17,4482.00 6737.17,4482.00
             6723.49,4623.22 6698.93,4762.92 6661.85,4900.00
             6581.39,5197.45 6444.96,5479.96 6262.12,5728.00
             6197.82,5815.22 6127.83,5898.72 6052.96,5977.00
             6052.96,5977.00 6025.01,6005.00 6025.01,6005.00
             6025.01,6005.00 6014.99,6015.99 6014.99,6015.99
             6014.99,6015.99 6004.00,6026.01 6004.00,6026.01
             6004.00,6026.01 5976.00,6053.96 5976.00,6053.96
             5908.58,6118.44 5837.21,6179.51 5763.00,6236.12
             5553.13,6396.21 5317.45,6524.08 5068.00,6610.66
             4913.80,6664.17 4746.86,6704.98 4585.00,6726.28
             4585.00,6726.28 4498.00,6736.83 4498.00,6736.83
             4498.00,6736.83 4459.00,6740.17 4459.00,6740.17
             4459.00,6740.17 4421.00,6743.09 4421.00,6743.09
             4421.00,6743.09 4396.00,6745.00 4396.00,6745.00
             4396.00,6745.00 4353.00,6747.00 4353.00,6747.00
             4353.00,6747.00 4337.00,6748.00 4337.00,6748.00
             4337.00,6748.00 4322.00,6748.00 4322.00,6748.00
             4322.00,6748.00 4306.00,6749.00 4306.00,6749.00
             4306.00,6749.00 4257.00,6749.00 4257.00,6749.00
             4257.00,6749.00 4243.00,6749.97 4243.00,6749.97
             4243.00,6749.97 4229.00,6749.00 4229.00,6749.00
             4229.00,6749.00 4180.00,6749.00 4180.00,6749.00
             4180.00,6749.00 4164.00,6748.00 4164.00,6748.00
             4164.00,6748.00 4150.00,6748.00 4150.00,6748.00
             4150.00,6748.00 4133.00,6747.00 4133.00,6747.00
             4133.00,6747.00 4090.00,6745.00 4090.00,6745.00
             4090.00,6745.00 4065.00,6743.09 4065.00,6743.09
             4065.00,6743.09 4027.00,6740.17 4027.00,6740.17
             4027.00,6740.17 3988.00,6736.83 3988.00,6736.83
             3988.00,6736.83 3873.00,6722.27 3873.00,6722.27
             3707.28,6697.86 3543.32,6656.59 3386.00,6599.05
             3104.48,6496.09 2852.09,6349.10 2623.00,6155.58
             2584.35,6122.92 2546.55,6088.92 2510.00,6053.96
             2510.00,6053.96 2482.00,6026.01 2482.00,6026.01
             2482.00,6026.01 2471.01,6015.99 2471.01,6015.99
             2471.01,6015.99 2460.99,6005.00 2460.99,6005.00
             2460.99,6005.00 2433.04,5977.00 2433.04,5977.00
             2433.04,5977.00 2390.17,5931.00 2390.17,5931.00
             2295.58,5826.45 2210.05,5715.54 2133.69,5597.00
             1972.25,5346.38 1858.35,5069.02 1794.42,4778.00
             1775.97,4694.00 1761.98,4607.48 1752.84,4522.00
             1752.84,4522.00 1744.91,4436.00 1744.91,4436.00
             1744.91,4436.00 1742.91,4407.00 1742.91,4407.00
             1742.91,4407.00 1742.00,4397.00 1742.00,4397.00
             1742.00,4397.00 1740.96,4380.00 1740.96,4380.00
             1740.96,4380.00 1740.96,4371.00 1740.96,4371.00
             1740.96,4371.00 1739.96,4359.00 1739.96,4359.00
             1739.96,4359.00 1739.96,4348.00 1739.96,4348.00
             1739.96,4348.00 1739.00,4337.00 1739.00,4337.00
             1739.00,4337.00 1739.00,4323.00 1739.00,4323.00
             1739.00,4323.00 1737.91,4306.00 1737.91,4306.00
             1737.91,4306.00 1737.91,4254.00 1737.91,4254.00
             1737.91,4254.00 1737.91,4244.00 1737.91,4244.00
             1737.91,4244.00 1737.91,4236.00 1737.91,4236.00
             1737.91,4236.00 1737.91,4182.00 1737.91,4182.00
             1737.91,4182.00 1739.00,4166.00 1739.00,4166.00
             1739.00,4166.00 1739.00,4150.00 1739.00,4150.00
             1739.00,4150.00 1740.00,4137.00 1740.00,4137.00
             1740.00,4137.00 1744.91,4052.00 1744.91,4052.00
             1749.44,3986.11 1757.43,3920.33 1767.58,3855.00
             1804.85,3614.92 1878.39,3376.72 1984.26,3158.00
             2071.48,2977.79 2182.33,2802.94 2310.43,2649.00
             2349.78,2601.71 2390.54,2555.44 2433.04,2511.00
             2433.04,2511.00 2460.99,2483.00 2460.99,2483.00
             2460.99,2483.00 2471.01,2472.01 2471.01,2472.01
             2471.01,2472.01 2482.00,2461.99 2482.00,2461.99
             2482.00,2461.99 2529.00,2416.09 2529.00,2416.09
             2601.97,2348.10 2678.69,2284.08 2759.00,2224.88
             2994.04,2051.62 3259.74,1920.28 3540.00,1838.42
             3668.22,1800.98 3799.46,1774.08 3932.00,1757.72
             3932.00,1757.72 3988.00,1751.17 3988.00,1751.17
             3988.00,1751.17 4039.00,1746.83 4039.00,1746.83
             4039.00,1746.83 4079.00,1743.91 4079.00,1743.91
             4079.00,1743.91 4090.00,1743.00 4090.00,1743.00
             4090.00,1743.00 4112.00,1742.00 4112.00,1742.00
             4112.00,1742.00 4128.00,1741.00 4128.00,1741.00
             4128.00,1741.00 4163.00,1740.00 4163.00,1740.00
             4163.00,1740.00 4180.00,1739.00 4180.00,1739.00
             4180.00,1739.00 4202.00,1739.00 4202.00,1739.00
             4202.00,1739.00 4239.00,1738.28 4239.00,1738.28 Z
           M 4175.00,1832.14
           C 4175.00,1832.14 4152.00,1833.00 4152.00,1833.00
             4152.00,1833.00 4141.00,1833.96 4141.00,1833.96
             4141.00,1833.96 4128.00,1833.96 4128.00,1833.96
             4128.00,1833.96 4111.00,1835.00 4111.00,1835.00
             4111.00,1835.00 4096.00,1836.00 4096.00,1836.00
             4096.00,1836.00 4069.00,1837.91 4069.00,1837.91
             4028.59,1840.67 3988.25,1844.32 3948.00,1849.28
             3788.34,1868.99 3645.17,1901.39 3492.00,1950.34
             3492.00,1950.34 3458.00,1962.00 3458.00,1962.00
             3367.09,1992.96 3278.41,2029.92 3192.00,2071.74
             2869.50,2227.84 2585.28,2454.75 2360.80,2734.00
             2232.39,2893.75 2128.56,3064.85 2043.31,3251.00
             2012.11,3319.12 1985.21,3389.26 1960.66,3460.00
             1906.76,3615.29 1870.97,3775.11 1849.72,3938.00
             1849.72,3938.00 1838.83,4043.00 1838.83,4043.00
             1838.83,4043.00 1836.83,4070.00 1836.83,4070.00
             1836.83,4070.00 1835.00,4093.00 1835.00,4093.00
             1835.00,4093.00 1833.96,4111.00 1833.96,4111.00
             1833.96,4111.00 1833.96,4119.00 1833.96,4119.00
             1833.96,4119.00 1833.00,4131.00 1833.00,4131.00
             1833.00,4131.00 1832.00,4152.00 1832.00,4152.00
             1832.00,4152.00 1832.00,4166.00 1832.00,4166.00
             1832.00,4166.00 1831.00,4181.00 1831.00,4181.00
             1831.00,4181.00 1831.00,4305.00 1831.00,4305.00
             1831.00,4305.00 1832.00,4320.00 1832.00,4320.00
             1832.00,4320.00 1832.00,4337.00 1832.00,4337.00
             1832.00,4337.00 1833.00,4357.00 1833.00,4357.00
             1833.00,4357.00 1834.00,4372.00 1834.00,4372.00
             1834.00,4372.00 1836.91,4419.00 1836.91,4419.00
             1839.93,4463.18 1844.58,4506.99 1849.85,4551.00
             1868.24,4704.85 1908.05,4874.36 1958.00,5021.00
             2071.74,5354.91 2258.26,5660.12 2502.04,5915.00
             2502.04,5915.00 2535.00,5948.00 2535.00,5948.00
             2535.00,5948.00 2572.00,5984.96 2572.00,5984.96
             2719.89,6126.42 2897.83,6259.65 3078.00,6357.31
             3078.00,6357.31 3180.00,6410.74 3180.00,6410.74
             3261.27,6450.08 3339.20,6483.06 3424.00,6514.05
             3575.59,6569.45 3733.41,6607.76 3893.00,6631.27
             3893.00,6631.27 3993.00,6643.83 3993.00,6643.83
             3993.00,6643.83 4031.00,6647.17 4031.00,6647.17
             4031.00,6647.17 4069.00,6650.09 4069.00,6650.09
             4069.00,6650.09 4093.00,6652.00 4093.00,6652.00
             4093.00,6652.00 4110.00,6653.04 4110.00,6653.04
             4110.00,6653.04 4118.00,6653.04 4118.00,6653.04
             4118.00,6653.04 4130.00,6654.04 4130.00,6654.04
             4130.00,6654.04 4141.00,6654.04 4141.00,6654.04
             4141.00,6654.04 4152.00,6655.00 4152.00,6655.00
             4152.00,6655.00 4166.00,6655.00 4166.00,6655.00
             4166.00,6655.00 4181.00,6656.00 4181.00,6656.00
             4181.00,6656.00 4303.00,6656.00 4303.00,6656.00
             4303.00,6656.00 4319.00,6655.00 4319.00,6655.00
             4319.00,6655.00 4333.00,6655.00 4333.00,6655.00
             4333.00,6655.00 4345.00,6654.04 4345.00,6654.04
             4345.00,6654.04 4358.00,6654.04 4358.00,6654.04
             4358.00,6654.04 4371.00,6653.00 4371.00,6653.00
             4371.00,6653.00 4393.00,6652.00 4393.00,6652.00
             4393.00,6652.00 4418.00,6650.09 4418.00,6650.09
             4418.00,6650.09 4455.00,6647.17 4455.00,6647.17
             4455.00,6647.17 4512.00,6641.83 4512.00,6641.83
             4512.00,6641.83 4600.00,6630.27 4600.00,6630.27
             4692.99,6616.57 4785.26,6597.39 4876.00,6572.85
             5265.30,6467.55 5622.70,6263.58 5914.00,5984.96
             5914.00,5984.96 5947.00,5952.00 5947.00,5952.00
             5947.00,5952.00 5983.96,5915.00 5983.96,5915.00
             6229.63,5658.15 6414.42,5354.36 6529.00,5018.00
             6574.96,4883.07 6608.50,4742.00 6629.27,4601.00
             6636.90,4549.24 6643.50,4497.16 6647.09,4445.00
             6647.09,4445.00 6650.09,4405.00 6650.09,4405.00
             6650.09,4405.00 6651.00,4395.00 6651.00,4395.00
             6651.00,4395.00 6653.00,4352.00 6653.00,4352.00
             6653.00,4352.00 6654.00,4336.00 6654.00,4336.00
             6654.00,4336.00 6654.00,4321.00 6654.00,4321.00
             6654.00,4321.00 6655.00,4307.00 6655.00,4307.00
             6655.00,4307.00 6655.00,4183.00 6655.00,4183.00
             6655.00,4183.00 6654.00,4166.00 6654.00,4166.00
             6654.00,4166.00 6654.00,4151.00 6654.00,4151.00
             6654.00,4151.00 6653.00,4131.00 6653.00,4131.00
             6653.00,4131.00 6652.00,4116.00 6652.00,4116.00
             6652.00,4116.00 6651.00,4093.00 6651.00,4093.00
             6651.00,4093.00 6650.09,4083.00 6650.09,4083.00
             6650.09,4083.00 6647.09,4042.00 6647.09,4042.00
             6644.12,3999.57 6638.83,3957.20 6633.28,3915.00
             6615.80,3782.21 6585.76,3650.84 6546.02,3523.00
             6383.07,2998.72 6041.99,2546.31 5587.00,2239.67
             5373.31,2095.65 5136.14,1987.58 4888.00,1918.58
             4776.16,1887.47 4664.06,1865.73 4549.00,1850.72
             4549.00,1850.72 4444.00,1839.83 4444.00,1839.83
             4444.00,1839.83 4403.00,1836.91 4403.00,1836.91
             4403.00,1836.91 4393.00,1836.00 4393.00,1836.00
             4393.00,1836.00 4350.00,1834.00 4350.00,1834.00
             4350.00,1834.00 4334.00,1833.00 4334.00,1833.00
             4334.00,1833.00 4319.00,1833.00 4319.00,1833.00
             4319.00,1833.00 4303.00,1832.14 4303.00,1832.14
             4303.00,1832.14 4234.00,1832.14 4234.00,1832.14
             4234.00,1832.14 4175.00,1832.14 4175.00,1832.14 Z
           M 3955.00,2376.00
           C 3955.00,2376.00 3955.00,3278.00 3955.00,3278.00
             3955.00,3278.00 3902.00,3294.95 3902.00,3294.95
             3874.38,3305.04 3846.51,3315.46 3820.00,3328.26
             3820.00,3328.26 3781.00,3347.42 3781.00,3347.42
             3777.76,3349.25 3767.29,3355.51 3764.00,3355.01
             3760.58,3354.49 3753.66,3346.66 3751.00,3344.00
             3751.00,3344.00 3719.00,3312.00 3719.00,3312.00
             3719.00,3312.00 3596.00,3189.00 3596.00,3189.00
             3596.00,3189.00 3127.00,2720.00 3127.00,2720.00
             3131.11,2715.07 3141.40,2708.28 3147.00,2704.29
             3147.00,2704.29 3186.00,2677.33 3186.00,2677.33
             3229.24,2648.19 3273.45,2620.57 3319.00,2595.14
             3464.05,2514.17 3600.81,2459.18 3761.00,2415.85
             3801.63,2404.86 3842.74,2396.05 3884.00,2387.80
             3884.00,2387.80 3924.00,2380.58 3924.00,2380.58
             3924.00,2380.58 3955.00,2376.00 3955.00,2376.00 Z
           M 5360.00,2719.00
           C 5355.70,2725.01 5346.55,2733.45 5341.00,2739.00
             5341.00,2739.00 5308.00,2772.00 5308.00,2772.00
             5308.00,2772.00 5205.00,2875.00 5205.00,2875.00
             5205.00,2875.00 4885.00,3195.00 4885.00,3195.00
             4885.00,3195.00 4767.00,3313.00 4767.00,3313.00
             4767.00,3313.00 4736.00,3344.00 4736.00,3344.00
             4733.34,3346.66 4726.42,3354.49 4723.00,3355.01
             4719.49,3355.55 4709.43,3349.16 4706.00,3347.31
             4706.00,3347.31 4667.00,3328.26 4667.00,3328.26
             4640.46,3315.42 4612.66,3305.05 4585.00,3294.95
             4585.00,3294.95 4532.00,3278.00 4532.00,3278.00
             4532.00,3278.00 4532.00,2376.00 4532.00,2376.00
             4543.80,2376.26 4591.50,2385.67 4606.00,2388.39
             4661.92,2398.87 4717.40,2412.63 4772.00,2428.58
             4925.64,2473.45 5073.71,2537.62 5211.00,2620.00
             5251.63,2644.38 5291.19,2670.11 5330.00,2697.28
             5330.00,2697.28 5360.00,2719.00 5360.00,2719.00 Z
           M 2719.00,3128.00
           C 2719.00,3128.00 3188.00,3597.00 3188.00,3597.00
             3188.00,3597.00 3311.00,3720.00 3311.00,3720.00
             3311.00,3720.00 3343.00,3752.00 3343.00,3752.00
             3345.66,3754.66 3353.49,3761.58 3354.01,3765.00
             3354.51,3768.29 3348.25,3778.76 3346.42,3782.00
             3346.42,3782.00 3327.26,3821.00 3327.26,3821.00
             3314.43,3847.51 3304.05,3875.37 3293.95,3903.00
             3293.95,3903.00 3277.00,3956.00 3277.00,3956.00
             3277.00,3956.00 2375.00,3956.00 2375.00,3956.00
             2375.00,3956.00 2378.58,3931.00 2378.58,3931.00
             2378.58,3931.00 2386.80,3885.00 2386.80,3885.00
             2395.05,3843.73 2403.85,3802.65 2414.85,3762.00
             2458.33,3601.27 2512.88,3465.56 2594.14,3320.00
             2619.57,3274.45 2647.19,3230.24 2676.33,3187.00
             2676.33,3187.00 2703.29,3148.00 2703.29,3148.00
             2707.28,3142.40 2714.07,3132.11 2719.00,3128.00 Z
           M 5769.00,3128.00
           C 5769.00,3128.00 5810.67,3187.00 5810.67,3187.00
             5834.02,3221.64 5856.45,3256.85 5877.42,3293.00
             5958.38,3432.48 6016.24,3568.31 6061.42,3723.00
             6076.24,3773.73 6088.24,3825.19 6098.60,3877.00
             6098.60,3877.00 6107.42,3925.00 6107.42,3925.00
             6107.42,3925.00 6112.00,3956.00 6112.00,3956.00
             6112.00,3956.00 5210.00,3956.00 5210.00,3956.00
             5210.00,3956.00 5193.05,3903.00 5193.05,3903.00
             5182.94,3875.33 5172.56,3847.56 5159.74,3821.00
             5159.74,3821.00 5140.69,3782.00 5140.69,3782.00
             5138.84,3778.57 5132.45,3768.51 5132.99,3765.00
             5133.51,3761.58 5141.34,3754.66 5144.00,3752.00
             5144.00,3752.00 5175.00,3721.00 5175.00,3721.00
             5175.00,3721.00 5293.00,3603.00 5293.00,3603.00
             5293.00,3603.00 5613.00,3283.00 5613.00,3283.00
             5613.00,3283.00 5716.00,3180.00 5716.00,3180.00
             5716.00,3180.00 5749.00,3147.00 5749.00,3147.00
             5754.55,3141.45 5762.99,3132.30 5769.00,3128.00 Z
           M 4242.00,3479.37
           C 4242.00,3479.37 4254.00,3480.00 4254.00,3480.00
             4254.00,3480.00 4275.00,3480.00 4275.00,3480.00
             4275.00,3480.00 4287.00,3480.91 4287.00,3480.91
             4287.00,3480.91 4333.00,3484.84 4333.00,3484.84
             4382.68,3490.15 4431.46,3501.46 4479.00,3516.66
             4501.97,3524.00 4525.04,3532.21 4547.00,3542.23
             4547.00,3542.23 4590.00,3562.26 4590.00,3562.26
             4670.77,3603.93 4746.81,3660.55 4807.83,3728.00
             4876.56,3803.96 4927.79,3887.80 4962.95,3984.00
             4982.24,4036.78 4997.19,4099.11 5003.16,4155.00
             5003.16,4155.00 5007.00,4193.00 5007.00,4193.00
             5007.00,4193.00 5007.00,4202.00 5007.00,4202.00
             5007.00,4202.00 5008.00,4212.00 5008.00,4212.00
             5008.00,4212.00 5008.00,4276.00 5008.00,4276.00
             5008.00,4276.00 5007.04,4289.00 5007.04,4289.00
             5005.62,4321.50 5001.36,4353.95 4995.58,4386.00
             4972.10,4516.14 4910.15,4644.11 4823.72,4744.00
             4757.29,4820.77 4680.17,4881.21 4590.00,4927.74
             4590.00,4927.74 4563.00,4940.74 4563.00,4940.74
             4504.12,4969.24 4419.93,4993.53 4355.00,5002.28
             4332.67,5005.29 4310.51,5008.06 4288.00,5009.04
             4288.00,5009.04 4275.00,5010.00 4275.00,5010.00
             4275.00,5010.00 4252.00,5010.00 4252.00,5010.00
             4252.00,5010.00 4243.00,5010.66 4243.00,5010.66
             4243.00,5010.66 4232.00,5010.00 4232.00,5010.00
             4232.00,5010.00 4210.00,5010.00 4210.00,5010.00
             4210.00,5010.00 4200.00,5009.09 4200.00,5009.09
             4200.00,5009.09 4173.00,5007.17 4173.00,5007.17
             4112.30,5001.29 4062.12,4990.99 4004.00,4972.34
             3932.09,4949.27 3869.44,4916.49 3807.00,4874.33
             3763.39,4844.89 3721.71,4808.43 3685.91,4770.00
             3633.20,4713.42 3588.00,4649.72 3554.26,4580.00
             3452.09,4368.92 3452.09,4121.08 3554.26,3910.00
             3645.76,3720.95 3817.79,3573.31 4019.00,3512.72
             4071.46,3496.92 4122.52,3487.36 4177.00,3482.17
             4177.00,3482.17 4200.00,3480.91 4200.00,3480.91
             4200.00,3480.91 4212.00,3480.00 4212.00,3480.00
             4212.00,3480.00 4242.00,3479.37 4242.00,3479.37 Z
           M 4207.00,3594.14
           C 4207.00,3594.14 4194.00,3595.17 4194.00,3595.17
             4194.00,3595.17 4155.00,3599.28 4155.00,3599.28
             4113.42,3604.75 4071.67,3614.47 4032.00,3628.08
             3862.71,3686.13 3724.03,3811.25 3649.31,3974.00
             3622.74,4031.87 3603.41,4098.73 3595.85,4162.00
             3595.85,4162.00 3592.00,4197.00 3592.00,4197.00
             3592.00,4197.00 3592.00,4206.00 3592.00,4206.00
             3592.00,4206.00 3591.00,4216.00 3591.00,4216.00
             3591.00,4216.00 3591.00,4274.00 3591.00,4274.00
             3591.00,4274.00 3591.96,4287.00 3591.96,4287.00
             3592.86,4307.72 3595.24,4328.47 3598.42,4349.00
             3612.08,4436.96 3645.51,4524.21 3693.69,4599.00
             3741.34,4672.97 3799.28,4731.83 3871.00,4782.58
             3920.36,4817.50 3982.39,4847.93 4040.00,4866.34
             4087.36,4881.48 4128.52,4890.22 4178.00,4895.17
             4178.00,4895.17 4203.00,4897.09 4203.00,4897.09
             4203.00,4897.09 4213.00,4898.00 4213.00,4898.00
             4213.00,4898.00 4271.00,4898.00 4271.00,4898.00
             4271.00,4898.00 4283.00,4897.09 4283.00,4897.09
             4283.00,4897.09 4318.00,4894.16 4318.00,4894.16
             4363.49,4889.30 4408.60,4879.11 4452.00,4864.65
             4642.78,4801.05 4798.05,4645.80 4861.65,4455.00
             4876.11,4411.62 4886.30,4366.48 4891.16,4321.00
             4891.16,4321.00 4894.09,4286.00 4894.09,4286.00
             4894.09,4286.00 4895.00,4274.00 4895.00,4274.00
             4895.00,4274.00 4895.00,4216.00 4895.00,4216.00
             4895.00,4216.00 4894.04,4205.00 4894.04,4205.00
             4892.11,4160.73 4884.30,4115.71 4872.42,4073.00
             4849.12,3989.18 4811.12,3912.72 4757.58,3844.00
             4666.26,3726.80 4533.22,3641.65 4388.00,3609.58
             4353.81,3602.03 4318.98,3596.49 4284.00,3594.96
             4284.00,3594.96 4271.00,3594.14 4271.00,3594.14
             4271.00,3594.14 4250.00,3594.14 4250.00,3594.14
             4250.00,3594.14 4207.00,3594.14 4207.00,3594.14 Z
           M 3277.00,4533.00
           C 3277.00,4533.00 3293.95,4586.00 3293.95,4586.00
             3304.04,4613.62 3314.44,4641.50 3327.26,4668.00
             3327.26,4668.00 3346.42,4707.00 3346.42,4707.00
             3348.25,4710.24 3354.51,4720.71 3354.01,4724.00
             3353.49,4727.42 3345.66,4734.34 3343.00,4737.00
             3343.00,4737.00 3311.00,4769.00 3311.00,4769.00
             3311.00,4769.00 3188.00,4892.00 3188.00,4892.00
             3188.00,4892.00 2719.00,5361.00 2719.00,5361.00
             2714.07,5356.89 2707.28,5346.60 2703.29,5341.00
             2703.29,5341.00 2676.33,5302.00 2676.33,5302.00
             2647.37,5258.57 2619.60,5214.60 2594.14,5169.00
             2512.91,5023.49 2458.31,4887.67 2414.85,4727.00
             2403.85,4686.35 2395.05,4645.27 2386.80,4604.00
             2386.80,4604.00 2377.73,4553.00 2377.73,4553.00
             2377.73,4553.00 2375.00,4533.00 2375.00,4533.00
             2375.00,4533.00 3277.00,4533.00 3277.00,4533.00 Z
           M 6112.00,4533.00
           C 6112.00,4533.00 6108.08,4560.00 6108.08,4560.00
             6108.08,4560.00 6098.60,4612.00 6098.60,4612.00
             6088.24,4663.80 6076.24,4715.28 6061.42,4766.00
             6016.25,4920.65 5958.35,5056.55 5877.42,5196.00
             5857.06,5231.09 5835.33,5265.36 5812.67,5299.00
             5798.63,5319.84 5784.69,5341.36 5769.00,5361.00
             5762.99,5356.70 5754.55,5347.55 5749.00,5342.00
             5749.00,5342.00 5716.00,5309.00 5716.00,5309.00
             5716.00,5309.00 5613.00,5206.00 5613.00,5206.00
             5613.00,5206.00 5293.00,4886.00 5293.00,4886.00
             5293.00,4886.00 5175.00,4768.00 5175.00,4768.00
             5175.00,4768.00 5144.00,4737.00 5144.00,4737.00
             5141.34,4734.34 5133.51,4727.42 5132.99,4724.00
             5132.45,4720.49 5138.84,4710.43 5140.69,4707.00
             5140.69,4707.00 5159.74,4668.00 5159.74,4668.00
             5172.56,4641.44 5182.94,4613.67 5193.05,4586.00
             5193.05,4586.00 5210.00,4533.00 5210.00,4533.00
             5210.00,4533.00 6112.00,4533.00 6112.00,4533.00 Z
           M 3955.00,5211.00
           C 3955.00,5211.00 3955.00,6113.00 3955.00,6113.00
             3955.00,6113.00 3924.00,6108.42 3924.00,6108.42
             3924.00,6108.42 3878.00,6100.00 3878.00,6100.00
             3825.44,6089.66 3773.52,6077.11 3722.00,6062.42
             3571.29,6019.46 3427.47,5957.05 3292.00,5878.42
             3257.57,5858.44 3224.11,5837.07 3191.00,5815.00
             3169.53,5800.69 3147.16,5786.09 3127.00,5770.00
             3131.30,5763.99 3140.45,5755.55 3146.00,5750.00
             3146.00,5750.00 3179.00,5717.00 3179.00,5717.00
             3179.00,5717.00 3282.00,5614.00 3282.00,5614.00
             3282.00,5614.00 3602.00,5294.00 3602.00,5294.00
             3602.00,5294.00 3720.00,5176.00 3720.00,5176.00
             3720.00,5176.00 3751.00,5145.00 3751.00,5145.00
             3753.66,5142.34 3760.58,5134.51 3764.00,5133.99
             3767.29,5133.49 3777.76,5139.75 3781.00,5141.58
             3781.00,5141.58 3820.00,5160.74 3820.00,5160.74
             3846.49,5173.56 3874.39,5183.96 3902.00,5194.05
             3902.00,5194.05 3955.00,5211.00 3955.00,5211.00 Z
           M 5360.00,5769.00
           C 5355.34,5774.60 5346.13,5780.34 5340.00,5784.71
             5340.00,5784.71 5302.00,5811.00 5302.00,5811.00
             5259.22,5839.66 5215.78,5866.83 5171.00,5892.28
             5029.74,5972.57 4867.71,6037.95 4710.00,6077.37
             4668.93,6087.64 4627.66,6096.91 4586.00,6104.42
             4586.00,6104.42 4532.00,6113.00 4532.00,6113.00
             4532.00,6113.00 4532.00,5211.00 4532.00,5211.00
             4532.00,5211.00 4585.00,5194.05 4585.00,5194.05
             4612.67,5183.94 4640.44,5173.56 4667.00,5160.74
             4667.00,5160.74 4706.00,5141.69 4706.00,5141.69
             4709.43,5139.84 4719.49,5133.45 4723.00,5133.99
             4726.42,5134.51 4733.34,5142.34 4736.00,5145.00
             4736.00,5145.00 4768.00,5177.00 4768.00,5177.00
             4768.00,5177.00 4891.00,5300.00 4891.00,5300.00
             4891.00,5300.00 5360.00,5769.00 5360.00,5769.00 Z" />
</svg>
